<svg xmlns="http://www.w3.org/2000/svg" width="12" height="12" viewBox="0 0 12 12">
  <g id="그룹_18" data-name="그룹 18" transform="translate(-203 -428)">
    <g id="그룹_17" data-name="그룹 17">
      <g id="그룹_16" data-name="그룹 16">
        <g id="그룹_15" data-name="그룹 15">
          <g id="그룹_14" data-name="그룹 14">
            <path id="패스_33" data-name="패스 33" d="M8,2A6,6,0,1,1,2,8,6,6,0,0,1,8,2ZM8,3a5,5,0,1,0,5,5A5,5,0,0,0,8,3ZM5.839,5.966,5.9,5.9a.5.5,0,0,1,.638-.058L6.6,5.9,8,7.293,9.4,5.9a.5.5,0,0,1,.638-.058L10.1,5.9a.5.5,0,0,1,.058.638L10.1,6.6,8.707,8l1.4,1.4a.5.5,0,0,1,.058.638L10.1,10.1a.5.5,0,0,1-.638.058L9.4,10.1,8,8.707,6.6,10.1a.5.5,0,0,1-.638.058L5.9,10.1a.5.5,0,0,1-.058-.638L5.9,9.4,7.293,8,5.9,6.6a.5.5,0,0,1-.058-.638L5.9,5.9Z" transform="translate(201 426)" fill="#4b4747"/>
          </g>
        </g>
      </g>
    </g>
  </g>
</svg>
