<svg xmlns="http://www.w3.org/2000/svg" width="34.552" height="33.787" viewBox="0 0 34.552 33.787">
  <path id="receiver-line" d="M27.73,35.44a4.72,4.72,0,0,1-1-.11,33.91,33.91,0,0,1-16.62-8.75,32.71,32.71,0,0,1-9-16.25A4.58,4.58,0,0,1,2.46,6.05l4-3.85a1.955,1.955,0,0,1,2.99.33l5,7.39a1.6,1.6,0,0,1-.11,1.9l-2.51,3A18.94,18.94,0,0,0,16,20.71a19.26,19.26,0,0,0,6.07,4.09l3.11-2.47a1.64,1.64,0,0,1,1.86-.12l7.55,4.88A2,2,0,0,1,35,30.2l-3.9,3.86a4.74,4.74,0,0,1-3.37,1.38ZM7.84,3.64l-4,3.85a2.54,2.54,0,0,0-.75,2.4A30.7,30.7,0,0,0,11.5,25.15a31.9,31.9,0,0,0,15.64,8.23,2.75,2.75,0,0,0,2.5-.74l3.9-3.86-7.29-4.71-3.34,2.66a1,1,0,0,1-.92.17,20.06,20.06,0,0,1-7.36-4.75,19.49,19.49,0,0,1-4.87-7.2A1,1,0,0,1,10,14l2.7-3.23Z" transform="translate(-1.013 -1.653)" fill="#4b4747"/>
</svg>
