<svg xmlns="http://www.w3.org/2000/svg" width="30.861" height="29.495" viewBox="0 0 30.861 29.495">
  <g id="desktop" transform="translate(0)">
    <path id="패스_117" data-name="패스 117" d="M157.8,401l-5.225,1.863-.2.692A2.621,2.621,0,0,1,150,405.347v.466h10.836Z" transform="translate(-140.686 -376.783)" fill="#adaca7"/>
    <path id="패스_118" data-name="패스 118" d="M198.716,375.418l-.73-2.555L194.974,371l-3.012,1.863-.532,1.863h5.225l.2.692a2.621,2.621,0,0,0,2.375,1.791l.931.466.931-.466A2.621,2.621,0,0,1,198.716,375.418Z" transform="translate(-179.543 -348.646)" fill="#8f8f8b"/>
    <path id="패스_119" data-name="패스 119" d="M437,260.314h1.863a1.868,1.868,0,0,0,1.863-1.863v-3.726L437,251Z" transform="translate(-409.865 -236.097)" fill="#adaca7"/>
    <path id="패스_120" data-name="패스 120" d="M0,202.177a1.868,1.868,0,0,0,1.863,1.863H27.135A1.868,1.868,0,0,0,29,202.177V191L0,198.451Z" transform="translate(0 -179.823)" fill="#cbc9c2"/>
    <path id="패스_121" data-name="패스 121" d="M438.863,11H437l1.863,18.628h1.863V12.863A1.868,1.868,0,0,0,438.863,11Z" transform="translate(-409.865 -11)" fill="#404242"/>
    <path id="패스_122" data-name="패스 122" d="M29,12.863A1.868,1.868,0,0,0,27.135,11H1.863A1.868,1.868,0,0,0,0,12.863V29.628H29V27.766L15.431,20.313Z" transform="translate(0 -11)" fill="#565959"/>
    <path id="패스_123" data-name="패스 123" d="M262.068,40.975h-1.862L248.5,48.426l11.7,7.452h1.863S262.067,40.976,262.068,40.975Z" transform="translate(-233.069 -39.113)" fill="#4b88d5"/>
    <path id="패스_124" data-name="패스 124" d="M55.273,40.974H30.005s0,14.9-.005,14.9H55.272S55.27,40.975,55.273,40.974Z" transform="translate(-28.137 -39.112)" fill="#69a7ff"/>
    <ellipse id="타원_62" data-name="타원 62" cx="0.931" cy="0.931" rx="0.931" ry="0.931" transform="translate(14.499 20.491)" fill="#fff"/>
    <path id="패스_125" data-name="패스 125" d="M105.715,471.931H86.466a.466.466,0,1,1,0-.931h19.249a.466.466,0,1,1,0,.931Z" transform="translate(-80.66 -442.437)" fill="#8f8f8b"/>
  </g>
</svg>
