<svg xmlns="http://www.w3.org/2000/svg" xmlns:xlink="http://www.w3.org/1999/xlink" width="26" height="26" viewBox="0 0 26 26">
  <defs>
    <linearGradient id="linear-gradient" x1="38.336" y1="18.445" x2="39.183" y2="19.44" gradientUnits="objectBoundingBox">
      <stop offset="0" stop-color="#9de5ae"/>
      <stop offset="0.232" stop-color="#58bcc9"/>
      <stop offset="0.399" stop-color="#6cbdac"/>
      <stop offset="0.473" stop-color="#64b7ab"/>
      <stop offset="0.98" stop-color="#5ed595"/>
      <stop offset="1" stop-color="#0090a5"/>
    </linearGradient>
  </defs>
  <g id="그룹_23" data-name="그룹 23" transform="translate(-123 -398)">
    <g id="그룹_21" data-name="그룹 21">
      <g id="그룹_20" data-name="그룹 20" transform="translate(123 398)">
        <rect id="사각형_18" data-name="사각형 18" width="26" height="26" rx="4" fill="url(#linear-gradient)"/>
        <path id="패스_35" data-name="패스 35" d="M13.031,6.81a.742.742,0,0,0-.788.476l.024-.055-1.557,3.1c-.014.028-.006.016-.012.024l-3.39.518.066-.005a.832.832,0,0,0-.761.525.852.852,0,0,0,.194.9l0,0L9.45,14.833c0,.009,0,.023,0,.045l-.6,3.316.007-.029a.835.835,0,0,0,.306.863.894.894,0,0,0,.913.057h0l3.026-1.549c.029-.014.032-.009.03-.008l3.041,1.555-.042-.025a.839.839,0,0,0,1.266-.893l-.6-3.326,2.391-2.378a.876.876,0,0,0,.2-.9.939.939,0,0,0-.659-.6l-.019-.005-3.3-.5a.684.684,0,0,1-.161-.121L13.734,7.316l.032.087a.822.822,0,0,0-.735-.594Zm-.052.928,1.571,3.124.049.05a1.738,1.738,0,0,0,.46.338l.061.03,3.4.52,0,0a.089.089,0,0,1,.052.049c.007.019.016-.009.005,0l-2.424,2.411a.82.82,0,0,0-.213.34.647.647,0,0,0,.02.461l.585,3.24-3-1.537.108.079a.769.769,0,0,0-.933-.081h0L9.712,18.305l.605-3.355v-.037a1.3,1.3,0,0,0-.02-.289.766.766,0,0,0-.193-.36l0,0L7.459,11.718l3.358-.513-.066.005a.8.8,0,0,0,.475-.158.951.951,0,0,0,.259-.338l1.495-2.976Z" transform="translate(0)" fill="#fff"/>
      </g>
    </g>
  </g>
</svg>
