<svg xmlns="http://www.w3.org/2000/svg" width="32.069" height="49.885" viewBox="0 0 32.069 49.885">
  <g id="ios-location-outline" transform="translate(-7.875 -2.25)">
    <path id="패스_3" data-name="패스 3" d="M23.909,4.032A14.253,14.253,0,0,1,38.162,18.284c0,4.779-2.683,11.928-7.758,20.676-2.48,4.276-4.985,7.977-6.495,10.126-1.5-2.141-4-5.826-6.476-10.093C12.346,30.23,9.657,23.07,9.657,18.284A14.253,14.253,0,0,1,23.909,4.032m0-1.782A16.034,16.034,0,0,0,7.875,18.284c0,12.471,16.034,33.85,16.034,33.85s16.034-21.379,16.034-33.85A16.034,16.034,0,0,0,23.909,2.25Z" fill="#4b4747"/>
    <path id="패스_4" data-name="패스 4" d="M20.626,7.875A7.126,7.126,0,1,0,27.753,15,7.133,7.133,0,0,0,20.626,7.875Zm0,12.349A5.223,5.223,0,1,1,25.849,15,5.224,5.224,0,0,1,20.626,20.224Z" transform="translate(3.283 3.283)" fill="#4b4747"/>
  </g>
</svg>
