<svg xmlns="http://www.w3.org/2000/svg" xmlns:xlink="http://www.w3.org/1999/xlink" width="26" height="26" viewBox="0 0 26 26">
  <defs>
    <linearGradient id="linear-gradient" x1="20.67" y1="-10.173" x2="21.235" y2="-9.55" gradientUnits="objectBoundingBox">
      <stop offset="0" stop-color="#fc375d"/>
      <stop offset="0.36" stop-color="#ff5136"/>
      <stop offset="0.867" stop-color="#ffa267"/>
      <stop offset="1" stop-color="#ff770b"/>
    </linearGradient>
  </defs>
  <g id="그룹_13" data-name="그룹 13" transform="translate(-204 -343)">
    <g id="그룹_7" data-name="그룹 7" transform="translate(204 -661.541)">
      <rect id="사각형_16" data-name="사각형 16" width="26" height="26" rx="4" transform="translate(0 1004.541)" fill="url(#linear-gradient)"/>
      <path id="패스_18" data-name="패스 18" d="M14.853,1019.806a3.215,3.215,0,0,0-3.208,3.4,3.847,3.847,0,0,0-1.268.576.968.968,0,0,0-.347.463.694.694,0,0,0,.082.562,2.143,2.143,0,0,0,1.154.741,11.581,11.581,0,0,0,2.112.5l4.06,3.8a.272.272,0,0,0,.186.073h.009a.273.273,0,0,0,.186-.074l4.061-3.8a12.485,12.485,0,0,0,1.978-.446,3.4,3.4,0,0,0,1.045-.513.827.827,0,0,0,.36-.759,1.048,1.048,0,0,0-.557-.679,4.658,4.658,0,0,0-1.077-.444,3.271,3.271,0,0,0-.951-2.461.272.272,0,0,0-.087-.059h0a3.2,3.2,0,0,0-4.459.06l-.5.5-.5-.5a3.2,3.2,0,0,0-2.274-.944h0Zm0,.539a2.661,2.661,0,0,1,1.889.789l.693.695a.273.273,0,0,0,.386,0l.693-.694a2.659,2.659,0,0,1,1.888-.789h0a2.662,2.662,0,0,1,1.889.789h0a2.635,2.635,0,0,1,.005,3.775l-.664.621a30.323,30.323,0,0,1-5.892.218.273.273,0,1,0-.032.544,31.688,31.688,0,0,0,5.236-.118l-3.318,3.106-4.664-4.365h0a2.681,2.681,0,0,1,1.89-4.572Zm-3.13,3.411a3.205,3.205,0,0,0,.855,1.549l.006.006.047.044a9.39,9.39,0,0,1-1.181-.314,1.974,1.974,0,0,1-.877-.518c-.037-.06-.035-.075-.023-.113a.475.475,0,0,1,.165-.2,3.423,3.423,0,0,1,1.008-.458Zm11.831.005a4.171,4.171,0,0,1,.865.358c.225.138.3.26.306.307s0,.11-.163.24a3.012,3.012,0,0,1-.877.422,9.73,9.73,0,0,1-1.066.272l.052-.048a3.02,3.02,0,0,0,.883-1.55Z" transform="translate(-4.547 -7.021)" fill="#fff" fill-rule="evenodd"/>
    </g>
  </g>
</svg>
