<svg xmlns="http://www.w3.org/2000/svg" width="94.346" height="94.346" viewBox="0 0 94.346 94.346">
  <g id="user-avatar" transform="translate(-2.25 -2.25)">
    <path id="패스_1" data-name="패스 1" d="M49.423,2.25A47.173,47.173,0,1,0,96.6,49.423,47.173,47.173,0,0,0,49.423,2.25ZM29.206,84.4V77.658A10.851,10.851,0,0,1,39.315,66.271H59.532A10.851,10.851,0,0,1,69.64,77.694v6.739a40.165,40.165,0,0,1-40.434,0Zm47.173-4.921V77.422a17.554,17.554,0,0,0-16.848-17.89H39.315A17.521,17.521,0,0,0,22.467,77.425v1.989a40.434,40.434,0,1,1,53.912,0Z" transform="translate(0 0)" fill="#626060"/>
    <path id="패스_2" data-name="패스 2" d="M29.223,7.875A16.848,16.848,0,1,0,46.07,24.723,16.848,16.848,0,0,0,29.223,7.875Zm0,26.956A10.109,10.109,0,1,1,39.331,24.723,10.109,10.109,0,0,1,29.223,34.831Z" transform="translate(20.201 11.223)" fill="#626060"/>
  </g>
</svg>
