<svg xmlns="http://www.w3.org/2000/svg" width="31.501" height="31.5" viewBox="0 0 31.501 31.5">
  <g id="pencil" transform="translate(-2.247 -2.25)">
    <path id="패스_16" data-name="패스 16" d="M25.409,2.909a2.25,2.25,0,0,1,3.181,0l4.5,4.5a2.25,2.25,0,0,1,0,3.181L12.84,30.84a2.25,2.25,0,0,1-.878.544l-6.75,2.25a2.25,2.25,0,0,1-2.849-2.846l2.25-6.75a2.25,2.25,0,0,1,.544-.88l20.25-20.25ZM27,4.5,31.5,9,11.25,29.25,4.5,31.5l2.25-6.75Z" fill="#4b4747" fill-rule="evenodd"/>
    <path id="패스_17" data-name="패스 17" d="M27.329,14.3,21.7,8.671,23.3,7.078,28.922,12.7,27.331,14.3ZM6.75,22.5v1.125A1.125,1.125,0,0,0,7.875,24.75H9v1.125A1.125,1.125,0,0,0,10.125,27H11.25v1.125a1.125,1.125,0,0,0,1.125,1.125H13.5V25.875a1.125,1.125,0,0,0-1.125-1.125H11.25V23.625A1.125,1.125,0,0,0,10.125,22.5Z" fill="#4b4747" fill-rule="evenodd"/>
  </g>
</svg>
