<svg xmlns="http://www.w3.org/2000/svg" width="26" height="26" viewBox="0 0 26 26">
  <g id="그룹_279" data-name="그룹 279" transform="translate(-303 -350)">
    <rect id="사각형_90" data-name="사각형 90" width="26" height="26" rx="3" transform="translate(303 350)" fill="rgba(146,145,145,0.71)"/>
    <path id="패스_116" data-name="패스 116" d="M13.657,2.343a2,2,0,0,1,0,2.828L6.27,12.558a2.5,2.5,0,0,1-1.161.658l-2.291.573a.5.5,0,0,1-.606-.606l.573-2.291A2.5,2.5,0,0,1,3.442,9.73l7.386-7.386A2,2,0,0,1,13.657,2.343ZM10.121,4.464,4.149,10.437a1.5,1.5,0,0,0-.395.7l-.371,1.483,1.483-.371a1.5,1.5,0,0,0,.7-.395l5.972-5.973ZM11.535,3.05l-.707.707,1.414,1.414.708-.707A1,1,0,0,0,11.535,3.05Z" transform="translate(307.78 355.219)" fill="#fff"/>
  </g>
</svg>
